<?xml version="1.0" encoding="UTF-8"?>
<!DOCTYPE svg PUBLIC "-//W3C//DTD SVG 1.1//EN" "http://www.w3.org/Graphics/SVG/1.1/DTD/svg11.dtd">
<!-- Creator: CorelDRAW -->
<svg xmlns="http://www.w3.org/2000/svg" xml:space="preserve" width="357px" height="364px" style="shape-rendering:geometricPrecision; text-rendering:geometricPrecision; image-rendering:optimizeQuality; fill-rule:evenodd; clip-rule:evenodd"
viewBox="0 0 83.5786 85.3696"
 xmlns:xlink="http://www.w3.org/1999/xlink">
 <defs>
  <style type="text/css">
   <![CDATA[
    .fil0 {fill:none}
    .fil1 {fill:#DA251D}
   ]]>
  </style>
 </defs>
 <g id="Capa_x0020_1">
  <metadata id="CorelCorpID_0Corel-Layer"/>
  <rect class="fil0" width="83.5786" height="85.3696"/>
  <g id="_138602096">
   <circle id="_138775528" class="fil1" cx="38.5826" cy="23.9463" r="2.00411"/>
   <circle id="_138775816" class="fil1" cx="38.5826" cy="17.5332" r="2.00411"/>
   <circle id="_138775120" class="fil1" cx="44.9958" cy="23.9463" r="2.00411"/>
   <circle id="_138775024" class="fil1" cx="32.1694" cy="30.3595" r="2.00411"/>
   <circle id="_138774928" class="fil1" cx="38.5826" cy="30.3595" r="2.00411"/>
   <circle id="_138774760" class="fil1" cx="44.9958" cy="30.3595" r="2.00411"/>
   <circle id="_138774688" class="fil1" cx="51.4089" cy="30.3595" r="2.00411"/>
   <circle id="_138775240" class="fil1" cx="25.7563" cy="36.7727" r="1.00206"/>
   <circle id="_138774616" class="fil1" cx="25.7563" cy="30.3595" r="1.00206"/>
   <circle id="_138774736" class="fil1" cx="25.7563" cy="56.0122" r="1.00206"/>
   <circle id="_138774784" class="fil1" cx="25.7563" cy="62.4253" r="1.00206"/>
   <circle id="_138774880" class="fil1" cx="25.7563" cy="23.9463" r="1.00206"/>
   <circle id="_138778504" class="fil1" cx="25.7563" cy="17.5332" r="1.00206"/>
   <circle id="_138778456" class="fil1" cx="32.1694" cy="23.9463" r="1.00206"/>
   <circle id="_138778336" class="fil1" cx="32.1694" cy="17.5332" r="1.00206"/>
   <circle id="_138777808" class="fil1" cx="32.1694" cy="62.4253" r="1.00206"/>
   <circle id="_138777784" class="fil1" cx="51.4089" cy="23.9463" r="1.00206"/>
   <circle id="_138778024" class="fil1" cx="51.4089" cy="17.5332" r="1.00206"/>
   <circle id="_138777832" class="fil1" cx="44.9958" cy="17.5332" r="1.00206"/>
   <circle id="_138777616" class="fil1" cx="51.4089" cy="62.4253" r="1.00206"/>
   <circle id="_138777760" class="fil1" cx="57.8221" cy="23.9463" r="1.00206"/>
   <circle id="_138778240" class="fil1" cx="57.8221" cy="17.5332" r="1.00206"/>
   <circle id="_138777592" class="fil1" cx="57.8221" cy="30.3595" r="1.00206"/>
   <circle id="_138777568" class="fil1" cx="57.8221" cy="56.0122" r="1.00206"/>
   <circle id="_138777736" class="fil1" cx="57.8221" cy="49.599" r="1.00206"/>
   <circle id="_138778312" class="fil1" cx="57.8221" cy="62.4253" r="1.00206"/>
   <circle id="_138777280" class="fil1" cx="64.2353" cy="23.9463" r="1.00206"/>
   <circle id="_138777232" class="fil1" cx="64.2353" cy="17.5332" r="1.00206"/>
   <circle id="_138777088" class="fil1" cx="64.2353" cy="30.3595" r="1.00206"/>
   <circle id="_138776848" class="fil1" cx="64.2353" cy="36.7727" r="1.00206"/>
   <circle id="_138777208" class="fil1" cx="64.2353" cy="43.1858" r="1.00206"/>
   <circle id="_138777064" class="fil1" cx="64.2353" cy="49.599" r="1.00206"/>
   <circle id="_138776968" class="fil1" cx="64.2353" cy="56.0122" r="1.00206"/>
   <circle id="_138777448" class="fil1" cx="64.2353" cy="62.4253" r="1.00206"/>
   <circle id="_138776824" class="fil1" cx="70.6484" cy="23.9463" r="1.00206"/>
   <circle id="_138777496" class="fil1" cx="70.6484" cy="30.3595" r="1.00206"/>
   <circle id="_138776608" class="fil1" cx="70.6484" cy="36.7727" r="1.00206"/>
   <circle id="_138776464" class="fil1" cx="70.6484" cy="43.1858" r="1.00206"/>
   <circle id="_138776392" class="fil1" cx="70.6484" cy="49.599" r="1.00206"/>
   <circle id="_138776440" class="fil1" cx="70.6484" cy="56.0122" r="1.00206"/>
   <circle id="_138776224" class="fil1" cx="70.6484" cy="62.4253" r="1.00206"/>
   <circle id="_138776320" class="fil1" cx="19.3431" cy="23.9463" r="1.00206"/>
   <circle id="_138776296" class="fil1" cx="19.3431" cy="30.3595" r="1.00206"/>
   <circle id="_138776680" class="fil1" cx="19.3431" cy="36.7727" r="1.00206"/>
   <circle id="_138776512" class="fil1" cx="19.3431" cy="43.1858" r="1.00206"/>
   <circle id="_138776176" class="fil1" cx="19.3431" cy="49.599" r="1.00206"/>
   <circle id="_138776752" class="fil1" cx="19.3431" cy="56.0122" r="1.00206"/>
   <circle id="_138752424" class="fil1" cx="19.3431" cy="62.4253" r="1.00206"/>
   <circle id="_138751992" class="fil1" cx="19.3431" cy="68.8385" r="1.00206"/>
   <circle id="_138751944" class="fil1" cx="25.7563" cy="68.8385" r="1.00206"/>
   <circle id="_138752304" class="fil1" cx="32.1694" cy="68.8385" r="1.00206"/>
   <circle id="_138752160" class="fil1" cx="38.5826" cy="68.8385" r="1.00206"/>
   <circle id="_138752376" class="fil1" cx="44.9958" cy="68.8385" r="1.00206"/>
   <circle id="_138752640" class="fil1" cx="51.4089" cy="68.8385" r="1.00206"/>
   <circle id="_138752616" class="fil1" cx="57.8221" cy="68.8385" r="1.00206"/>
   <circle id="_138752040" class="fil1" cx="64.2353" cy="68.8385" r="1.00206"/>
   <circle id="_138752568" class="fil1" cx="12.93" cy="36.7727" r="1.00206"/>
   <circle id="_138752064" class="fil1" cx="12.93" cy="43.1858" r="1.00206"/>
   <circle id="_138753840" class="fil1" cx="12.93" cy="49.599" r="1.00206"/>
   <circle id="_138753816" class="fil1" cx="12.93" cy="56.0122" r="1.00206"/>
   <circle id="_138753792" class="fil1" cx="12.93" cy="62.4253" r="1.00206"/>
   <circle id="_138753576" class="fil1" cx="32.1694" cy="36.7727" r="2.00411"/>
   <circle id="_138753552" class="fil1" cx="38.5826" cy="36.7727" r="2.00411"/>
   <circle id="_138753504" class="fil1" cx="44.9958" cy="36.7727" r="2.00411"/>
   <circle id="_138753120" class="fil1" cx="51.4089" cy="36.7727" r="2.00411"/>
   <circle id="_138753048" class="fil1" cx="57.8221" cy="36.7727" r="2.00411"/>
   <circle id="_138753144" class="fil1" cx="25.7563" cy="43.1858" r="2.00411"/>
   <circle id="_138752688" class="fil1" cx="32.1694" cy="43.1858" r="2.00411"/>
   <circle id="_138752904" class="fil1" cx="38.5826" cy="43.1858" r="2.00411"/>
   <circle id="_138753024" class="fil1" cx="44.9958" cy="43.1858" r="2.00411"/>
   <circle id="_138752880" class="fil1" cx="51.4089" cy="43.1858" r="2.00411"/>
   <circle id="_138752736" class="fil1" cx="57.8221" cy="43.1858" r="2.00411"/>
   <circle id="_138753072" class="fil1" cx="25.7563" cy="49.599" r="2.00411"/>
   <circle id="_138752952" class="fil1" cx="32.1694" cy="49.599" r="2.00411"/>
   <circle id="_138753192" class="fil1" cx="38.5826" cy="49.599" r="2.00411"/>
   <circle id="_138602648" class="fil1" cx="44.9958" cy="49.599" r="2.00411"/>
   <circle id="_138602312" class="fil1" cx="51.4089" cy="49.599" r="2.00411"/>
   <circle id="_138602504" class="fil1" cx="32.1694" cy="56.0122" r="2.00411"/>
   <circle id="_138602480" class="fil1" cx="38.5826" cy="56.0122" r="2.00411"/>
   <circle id="_138602360" class="fil1" cx="44.9958" cy="56.0122" r="2.00411"/>
   <circle id="_138602552" class="fil1" cx="51.4089" cy="56.0122" r="2.00411"/>
   <circle id="_138601472" class="fil1" cx="38.5826" cy="62.4253" r="2.00411"/>
   <circle id="_138602168" class="fil1" cx="44.9958" cy="62.4253" r="2.00411"/>
  </g>
 </g>
</svg>
