<?xml version="1.0" encoding="UTF-8"?>
<!DOCTYPE svg PUBLIC "-//W3C//DTD SVG 1.1//EN" "http://www.w3.org/Graphics/SVG/1.1/DTD/svg11.dtd">
<!-- Creator: CorelDRAW -->
<svg xmlns="http://www.w3.org/2000/svg" xml:space="preserve" width="768px" height="295px" style="shape-rendering:geometricPrecision; text-rendering:geometricPrecision; image-rendering:optimizeQuality; fill-rule:evenodd; clip-rule:evenodd"
viewBox="0 0 304.203 117.001"
 xmlns:xlink="http://www.w3.org/1999/xlink">
 <defs>
  <style type="text/css">
   <![CDATA[
    .fil0 {fill:none}
    .fil1 {fill:red}
    .fil3 {fill:white}
    .fil2 {fill:white;fill-rule:nonzero}
   ]]>
  </style>
 </defs>
 <g id="Capa_x0020_1">
  <metadata id="CorelCorpID_0Corel-Layer"/>
  <rect class="fil0" width="304.203" height="117.001"/>
  <g id="_140987368">
   <circle id="_140597904" class="fil1" cx="145.569" cy="26.8293" r="3.38731"/>
   <circle id="_140969856" class="fil1" cx="145.569" cy="15.99" r="3.38731"/>
   <circle id="_141576712" class="fil1" cx="156.408" cy="26.8293" r="3.38731"/>
   <circle id="_140597520" class="fil1" cx="134.729" cy="37.6687" r="3.38731"/>
   <circle id="_140597592" class="fil1" cx="145.569" cy="37.6687" r="3.38731"/>
   <circle id="_141576736" class="fil1" cx="156.408" cy="37.6687" r="3.38731"/>
   <circle id="_140986696" class="fil1" cx="167.248" cy="37.6687" r="3.38731"/>
   <circle id="_140986528" class="fil1" cx="123.89" cy="48.5081" r="1.69365"/>
   <circle id="_140987464" class="fil1" cx="123.89" cy="37.6687" r="1.69365"/>
   <circle id="_140596968" class="fil1" cx="123.89" cy="81.0263" r="1.69365"/>
   <circle id="_140966256" class="fil1" cx="123.89" cy="91.8657" r="1.69365"/>
   <circle id="_140987248" class="fil1" cx="123.89" cy="26.8293" r="1.69365"/>
   <circle id="_140966640" class="fil1" cx="123.89" cy="15.99" r="1.69365"/>
   <circle id="_141576928" class="fil1" cx="134.729" cy="26.8293" r="1.69365"/>
   <circle id="_140965968" class="fil1" cx="134.729" cy="15.99" r="1.69365"/>
   <circle id="_140968632" class="fil1" cx="134.729" cy="91.8657" r="1.69365"/>
   <circle id="_140387544" class="fil1" cx="167.248" cy="26.8293" r="1.69365"/>
   <circle id="_140596848" class="fil1" cx="167.248" cy="15.99" r="1.69365"/>
   <circle id="_140967168" class="fil1" cx="156.408" cy="15.99" r="1.69365"/>
   <circle id="_140987512" class="fil1" cx="167.248" cy="91.8657" r="1.69365"/>
   <circle id="_140597328" class="fil1" cx="178.087" cy="26.8293" r="1.69365"/>
   <circle id="_140597568" class="fil1" cx="178.087" cy="15.99" r="1.69365"/>
   <circle id="_140986360" class="fil1" cx="178.087" cy="37.6687" r="1.69365"/>
   <circle id="_140987080" class="fil1" cx="178.087" cy="81.0263" r="1.69365"/>
   <circle id="_141577576" class="fil1" cx="178.087" cy="70.1869" r="1.69365"/>
   <circle id="_140987296" class="fil1" cx="178.087" cy="91.8657" r="1.69365"/>
   <circle id="_141575320" class="fil1" cx="188.926" cy="26.8293" r="1.69365"/>
   <circle id="_140598192" class="fil1" cx="188.926" cy="15.99" r="1.69365"/>
   <circle id="_140986888" class="fil1" cx="188.926" cy="37.6687" r="1.69365"/>
   <circle id="_141578296" class="fil1" cx="188.926" cy="48.5081" r="1.69365"/>
   <circle id="_140987008" class="fil1" cx="188.926" cy="59.3475" r="1.69365"/>
   <circle id="_140986960" class="fil1" cx="188.926" cy="70.1869" r="1.69365"/>
   <circle id="_140986048" class="fil1" cx="188.926" cy="81.0263" r="1.69365"/>
   <circle id="_140987200" class="fil1" cx="188.926" cy="91.8657" r="1.69365"/>
   <circle id="_140387880" class="fil1" cx="199.766" cy="26.8293" r="1.69365"/>
   <circle id="_140968728" class="fil1" cx="199.766" cy="37.6687" r="1.69365"/>
   <circle id="_140967936" class="fil1" cx="199.766" cy="48.5081" r="1.69365"/>
   <circle id="_140966232" class="fil1" cx="199.766" cy="59.3475" r="1.69365"/>
   <circle id="_140966448" class="fil1" cx="199.766" cy="70.1869" r="1.69365"/>
   <circle id="_140967096" class="fil1" cx="199.766" cy="81.0263" r="1.69365"/>
   <circle id="_140967576" class="fil1" cx="199.766" cy="91.8657" r="1.69365"/>
   <circle id="_140597040" class="fil1" cx="113.051" cy="26.8293" r="1.69365"/>
   <circle id="_140966064" class="fil1" cx="113.051" cy="37.6687" r="1.69365"/>
   <circle id="_140966664" class="fil1" cx="113.051" cy="48.5081" r="1.69365"/>
   <circle id="_140968536" class="fil1" cx="113.051" cy="59.3475" r="1.69365"/>
   <circle id="_141577192" class="fil1" cx="113.051" cy="70.1869" r="1.69365"/>
   <circle id="_140387736" class="fil1" cx="113.051" cy="81.0263" r="1.69365"/>
   <circle id="_140986408" class="fil1" cx="113.051" cy="91.8657" r="1.69365"/>
   <circle id="_140966856" class="fil1" cx="113.051" cy="102.705" r="1.69365"/>
   <circle id="_140967312" class="fil1" cx="123.89" cy="102.705" r="1.69365"/>
   <circle id="_140967672" class="fil1" cx="134.729" cy="102.705" r="1.69365"/>
   <circle id="_140969880" class="fil1" cx="145.569" cy="102.705" r="1.69365"/>
   <circle id="_140967720" class="fil1" cx="156.408" cy="102.705" r="1.69365"/>
   <circle id="_140967960" class="fil1" cx="167.248" cy="102.705" r="1.69365"/>
   <circle id="_140968128" class="fil1" cx="178.087" cy="102.705" r="1.69365"/>
   <circle id="_140967768" class="fil1" cx="188.926" cy="102.705" r="1.69365"/>
   <circle id="_140966304" class="fil1" cx="102.211" cy="48.5081" r="1.69365"/>
   <circle id="_140967336" class="fil1" cx="102.211" cy="59.3475" r="1.69365"/>
   <circle id="_140969280" class="fil1" cx="102.211" cy="70.1869" r="1.69365"/>
   <circle id="_140986384" class="fil1" cx="102.211" cy="81.0263" r="1.69365"/>
   <circle id="_140966760" class="fil1" cx="102.211" cy="91.8657" r="1.69365"/>
   <circle id="_140597832" class="fil1" cx="134.729" cy="48.5081" r="3.38731"/>
   <circle id="_140597544" class="fil1" cx="145.569" cy="48.5081" r="3.38731"/>
   <circle id="_141576664" class="fil1" cx="156.408" cy="48.5081" r="3.38731"/>
   <circle id="_140986432" class="fil1" cx="167.248" cy="48.5081" r="3.38731"/>
   <circle id="_141578320" class="fil1" cx="178.087" cy="48.5081" r="3.38731"/>
   <circle id="_140987056" class="fil1" cx="123.89" cy="59.3475" r="3.38731"/>
   <circle id="_140387136" class="fil1" cx="134.729" cy="59.3475" r="3.38731"/>
   <circle id="_140596704" class="fil1" cx="145.569" cy="59.3475" r="3.38731"/>
   <circle id="_141576376" class="fil1" cx="156.408" cy="59.3475" r="3.38731"/>
   <circle id="_140985712" class="fil1" cx="167.248" cy="59.3475" r="3.38731"/>
   <circle id="_141578056" class="fil1" cx="178.087" cy="59.3475" r="3.38731"/>
   <circle id="_140986600" class="fil1" cx="123.89" cy="70.1869" r="3.38731"/>
   <circle id="_141576496" class="fil1" cx="134.729" cy="70.1869" r="3.38731"/>
   <circle id="_140597400" class="fil1" cx="145.569" cy="70.1869" r="3.38731"/>
   <circle id="_141575704" class="fil1" cx="156.408" cy="70.1869" r="3.38731"/>
   <circle id="_140985664" class="fil1" cx="167.248" cy="70.1869" r="3.38731"/>
   <circle id="_140986720" class="fil1" cx="134.729" cy="81.0263" r="3.38731"/>
   <circle id="_140596608" class="fil1" cx="145.569" cy="81.0263" r="3.38731"/>
   <circle id="_141574984" class="fil1" cx="156.408" cy="81.0263" r="3.38731"/>
   <circle id="_141577552" class="fil1" cx="167.248" cy="81.0263" r="3.38731"/>
   <circle id="_140596584" class="fil1" cx="145.569" cy="91.8657" r="3.38731"/>
   <circle id="_141575344" class="fil1" cx="156.408" cy="91.8657" r="3.38731"/>
  </g>
  <g id="_140596296">
   <polygon id="_141575896" class="fil2" points="250.021,57.7448 265.655,82.0155 255.946,82.0155 245.096,63.5981 233.532,82.0155 224.751,82.0155 240.17,58.3158 225.394,35.7584 235.031,35.7584 245.382,52.5336 255.875,35.7584 264.655,35.7584 "/>
   <polygon id="_141576256" class="fil2" points="214.87,74.2733 214.87,35.7584 221.646,35.7584 221.646,74.2733 "/>
   <polygon id="_141575848" class="fil2" points="191.036,68.3891 209.342,68.3891 209.342,74.2733 184.26,74.2733 184.26,35.7584 191.036,35.7584 "/>
   <polygon id="_141576064" class="fil2" points="178.079,41.3454 160.01,41.3454 160.01,52.8761 175.642,52.8761 174.929,58.4632 160.01,58.4632 160.01,74.2733 153.234,74.2733 153.234,35.7584 178.079,35.7584 "/>
   <polygon id="_42579136" class="fil2" points="147.707,35.7584 147.707,41.5832 134.987,41.5832 134.987,74.2733 128.211,74.2733 128.211,41.5832 115.314,41.5832 115.314,35.7584 "/>
   <path id="_141576616" class="fil2" d="M94.6297 75.046c-3.9626,0 -7.33036,-0.841941 -10.1042,-2.52629 -2.77387,-1.68388 -4.86398,-4.04169 -6.27033,-7.07296 -1.40682,-3.03127 -2.11023,-6.54786 -2.11023,-10.5498 0,-4.43809 0.851769,-8.15265 2.55578,-11.1446 1.70401,-2.99149 3.98225,-5.20047 6.83521,-6.62695 2.85296,-1.42648 6.02276,-2.13972 9.50986,-2.13972 3.9626,0 7.33036,0.841941 10.1042,2.52582 2.77387,1.68435 4.85415,4.04169 6.24085,7.07296 1.3867,3.03127 2.08028,6.54833 2.08028,10.5502 0,4.43809 -0.851769,8.15265 -2.55578,11.1441 -1.70401,2.99196 -3.97243,5.20094 -6.80526,6.62742 -2.8333,1.42648 -5.99327,2.13972 -9.48038,2.13972zm0 -5.64648c2.57543,0 4.75493,-0.594366 6.53803,-1.7831 1.7831,-1.18873 3.11036,-2.84313 3.98225,-4.96319 0.871893,-2.11959 1.30761,-4.60611 1.30761,-7.45906 0,-2.93205 -0.416056,-5.48783 -1.24817,-7.66733 -0.832113,-2.1795 -2.09994,-3.87321 -3.80394,-5.08207 -1.70401,-1.20839 -3.8236,-1.81258 -6.35972,-1.81258 -2.61521,0 -4.81437,0.594366 -6.59747,1.7831 -1.7831,1.18873 -3.11036,2.84313 -3.98225,4.96273 -0.871893,2.12006 -1.30761,4.60657 -1.30761,7.45953 0,4.4774 0.970642,8.02395 2.9124,10.6392 1.94175,2.61521 4.79471,3.92282 8.55888,3.92282z"/>
   <path id="_140387616" class="fil2" d="M69.0719 35.7584l0 38.5149 -7.42958 0 -14.7997 -21.8727c-0.197966,-0.316839 -0.584538,-0.901378 -1.15878,-1.75361 -0.57471,-0.851769 -1.08998,-1.66423 -1.54535,-2.4369 -0.455837,-0.772676 -0.862065,-1.55518 -1.21869,-2.34751l0 28.4107 -6.59747 0 0 -38.5149 7.25127 0 15.513 22.9425c0.197966,0.277527 0.554586,0.802161 1.06986,1.57484 0.515274,0.772676 0.970642,1.48592 1.36704,2.13972 0.3964,0.653803 0.732896,1.29778 1.01042,1.93192l0 -28.589 6.53803 0z"/>
   <rect id="_141576688" class="fil3" x="36.3223" y="79.1031" width="185.323" height="2.9124"/>
  </g>
 </g>
</svg>
